<?xml version="1.0"?>
<svg xmlns="http://www.w3.org/2000/svg" xmlns:xlink="http://www.w3.org/1999/xlink" xmlns:svgjs="http://svgjs.com/svgjs" version="1.1" width="512" height="512" x="0" y="0" viewBox="0 0 511.99983 511" style="enable-background:new 0 0 512 512" xml:space="preserve" class=""><g><path xmlns="http://www.w3.org/2000/svg" d="m405.222656 367.742188h-29.875c-4.144531 0-7.503906 3.359374-7.503906 7.5 0 4.144531 3.359375 7.5 7.503906 7.5h29.875c4.140625 0 7.5-3.355469 7.5-7.5 0-4.140626-3.359375-7.5-7.5-7.5zm0 0" fill="#2f1442" data-original="#000000" style="" class=""/><path xmlns="http://www.w3.org/2000/svg" d="m274.792969 367.417969-24.070313-21.066407c-3.117187-2.722656-7.855468-2.410156-10.585937.707032-2.726563 3.117187-2.410157 7.855468.707031 10.585937l24.070312 21.0625c1.421876 1.242188 3.183594 1.855469 4.9375 1.855469 2.085938 0 4.164063-.867188 5.648438-2.5625 2.726562-3.117188 2.410156-7.851562-.707031-10.582031zm0 0" fill="#2f1442" data-original="#000000" style="" class=""/><path xmlns="http://www.w3.org/2000/svg" d="m173.785156 367.742188h-29.875c-4.144531 0-7.5 3.359374-7.5 7.5 0 4.144531 3.355469 7.5 7.5 7.5h29.875c4.144532 0 7.503906-3.355469 7.503906-7.5 0-4.140626-3.359374-7.5-7.503906-7.5zm0 0" fill="#2f1442" data-original="#000000" style="" class=""/><path xmlns="http://www.w3.org/2000/svg" d="m43.359375 367.417969-24.070313-21.066407c-3.117187-2.722656-7.855468-2.410156-10.585937.707032-2.726563 3.117187-2.410156 7.855468.707031 10.585937l24.070313 21.0625c1.421875 1.242188 3.183593 1.855469 4.9375 1.855469 2.085937 0 4.164062-.867188 5.644531-2.5625 2.730469-3.117188 2.414062-7.851562-.703125-10.582031zm0 0" fill="#2f1442" data-original="#000000" style="" class=""/><path xmlns="http://www.w3.org/2000/svg" d="m509.910156 17.945312c-1.753906-2.394531-4.453125-3.984374-7.398437-4.351562l-103.714844-13.007812c-4.277344-.539063-8.460937 1.511718-10.660156 5.210937-2.203125 3.703125-2.007813 8.359375.503906 11.859375l23.917969 33.351562-109.964844 65.269532-60.757812-106.105469c-2.089844-3.648437-5.667969-6.125-9.820313-6.792969-4.152344-.667968-8.328125.554688-11.457031 3.363282l-107.582032 96.480468c-3.085937 2.769532-3.34375 7.507813-.578124 10.59375 2.765624 3.082032 7.503906 3.339844 10.59375.574219l106.527343-95.535156 62.859375 109.769531c1.265625 2.214844 3.324219 3.792969 5.792969 4.441406 2.464844.652344 5.03125.292969 7.230469-1.011718l119.757812-71.082032c2.339844-1.386718 4-3.707031 4.554688-6.367187.558594-2.660157-.027344-5.453125-1.613282-7.660157l-21.722656-30.292968 89.890625 11.273437-16.640625 90.175781-21.8125-30.742187c-2.933594-4.132813-8.449218-5.324219-12.824218-2.769531l-39 22.742187c-1.371094.480469-2.710938 1.082031-4 1.828125l-15.898438 9.179688c-1.46875.847656-2.808594 1.839844-4.015625 2.941406l-14.355469 8.371094c-1.035156.15625-2.070312.386718-3.097656.703125-.585938.175781-1.144531.425781-1.667969.738281l-81.753906 48.921875-56.101563-88.808594c-4.019531-6.359375-12.230468-8.328125-18.699218-4.476562l-73.167969 43.609375c-.015625.007812-.03125.007812-.046875.015625-.582031.175781-1.140625.425781-1.664062.738281l-81.621094 48.84375 52.03125-46.664062c3.085937-2.765626 3.34375-7.507813.578125-10.589844-2.765625-3.085938-7.507813-3.34375-10.59375-.574219l-88.488281 79.355469c-3.960938 3.550781-4.570313 9.460937-1.417969 13.742187 2.007812 2.730469 5.105469 4.199219 8.265625 4.199219 1.800781 0 3.621094-.472656 5.277344-1.460938l4.449218-2.652343c2.511719 3.648437 5.949219 6.625 10.078125 8.613281 7.191407 3.472656 15.4375 3.449219 22.613281-.0625l33.585938-16.425781-17.472656 85.347656c-.261719 1.300781-.96875 2.488281-1.976563 3.351563-3.15625 2.683593-3.539062 7.417968-.855469 10.570312 1.484376 1.746094 3.59375 2.640625 5.714844 2.640625 1.71875 0 3.445313-.585937 4.855469-1.785156 3.558594-3.023438 6.027344-7.207031 6.957031-11.761719l4.328125-20.976562c4.238281 6.871093 10.011719 12.867187 17.101563 17.464843l-6.484375 15.996094c-.953125 1.929687-3.105469 3.253906-6.769531 5.390625-.46875.277344-.949219.554688-1.429688.839844l-42.683594 24.453125-3.921875-3.234375 9.542969-8.171875c3.144531-2.695313 3.511719-7.429688.816406-10.574219-2.691406-3.148438-7.425781-3.515625-10.574218-.820312l-13.308594 11.398437c-2.441406 2.078125-3.828125 5.113281-3.796875 8.320313.023437 3.207031 1.460937 6.214843 3.925781 8.242187l9.558594 7.890625c2.121094 1.742188 4.765625 2.636719 7.421875 2.636719 1.992187 0 3.996093-.503907 5.796875-1.523438l44.730468-25.625c.03125-.019531.0625-.039062.09375-.058593.46875-.277344.933594-.546876 1.390626-.8125 4.65625-2.722657 9.9375-5.800782 12.886718-12.1875.050782-.109376.097656-.21875.140625-.328126l5.757813-14.199218 16.402344 9.425781c3.320312 1.90625 5.242187 5.605469 4.898437 9.421875l-2.886719 31.730469c-.222656 2.453125.601563 4.902343 2.261719 6.722656 1.664063 1.816406 4.027344 2.859375 6.488281 2.859375h17.980469c4.105469 0 7.625-2.792969 8.554687-6.78125l11.117188-47.441406c1.898438-5.886719 1.144531-12.257813-2.089844-17.546875-.089844-.144531-.183594-.285157-.28125-.425781l-36.691406-51.769532 20.125-54.359375c.011719-.035156.023438-.066406.035156-.101562 1.636719-4.617188 2.5-9.367188 2.628906-14.097657 1.105469.160157 2.214844.25 3.320313.25 4.007813 0 7.960937-1.050781 11.523437-3.109374l15.898438-9.179688c11.039062-6.375 14.835938-20.542969 8.460938-31.582031l-3.632813-6.292969c-1.632813-2.828125-3.8125-5.21875-6.371094-7.089844l17.285157-10.300781 55.273437 87.492187-17.375 10.398438c-2.769531 1.65625-4.167969 4.898438-3.472656 8.050781 1.722656 7.800781 6.839843 14.265625 14.035156 17.734375 7.191406 3.472656 15.4375 3.449219 22.613281-.0625l66.304688-32.429687c3.71875-1.820313 5.261718-6.3125 3.441406-10.03125-1.820312-3.722657-6.3125-5.261719-10.035156-3.441407l-66.300782 32.429688c-3.019531 1.476562-6.484374 1.484375-9.511718.023438-1.425782-.6875-2.660156-1.65625-3.640625-2.835938l18.269531-10.933594 89.34375-52.105468c1.550781.265624 2.984375 1.074218 4.015625 2.371093l.316406.394531c.375.894532.800781 1.773438 1.296875 2.632813l3.632813 6.292969c.003906.007812.007812.015625.015625.023437 2.28125 6.484375 2.34375 13.621094-.027344 20.34375l-19.433594 52.496094-28.707031-3.320313-3.683594-.429687.1875-.9375c.8125-4.0625-1.820312-8.015625-5.882812-8.828125-4.0625-.804688-8.015625 1.820312-8.828125 5.882812l-14.65625 71.296876c-.273438 1.320312-.976563 2.519531-2.003906 3.390624l-36.691407 31.414063c-2.4375 2.082031-3.820312 5.113281-3.792969 8.324219.027344 3.203125 1.460938 6.210937 3.925782 8.238281l9.539062 7.871094c2.121094 1.753906 4.769532 2.65625 7.4375 2.65625 1.992188 0 3.996094-.503907 5.804688-1.527344l44.726562-25.625c.03125-.019531.0625-.035156.09375-.054687.46875-.277344.929688-.546876 1.386719-.8125 4.660156-2.722657 9.941406-5.800782 12.890625-12.191407.050781-.105469.097656-.214843.140625-.324219l5.757813-14.199218 16.402343 9.421875c3.320313 1.910156 5.242188 5.609375 4.894531 9.425781l-2.882812 31.730469c-.222656 2.453125.601562 4.902343 2.261719 6.71875 1.660156 1.820312 4.027343 2.863281 6.488281 2.863281h17.980469c4.097656 0 7.617187-2.789062 8.554687-6.78125l11.121094-47.441406c1.894531-5.886719 1.140625-12.257813-2.09375-17.550782-.089844-.140624-.183594-.285156-.28125-.421874l-36.691406-51.769532 20.125-54.359375c.011718-.035156.023437-.066406.035156-.101562 1.636719-4.617188 2.503906-9.371094 2.628906-14.097657 1.105469.160157 2.214844.25 3.320313.25 4.007812 0 7.960937-1.050781 11.523437-3.109374l15.898438-9.179688c11.039062-6.375 14.835937-20.542969 8.460937-31.582031l-3.632812-6.292969c-1.347657-2.332031-3.074219-4.355469-5.070313-6.054688l19.871094-11.585937 24.71875 34.832031c2.523438 3.5625 6.914062 5.25 11.175781 4.3125 4.261719-.941406 7.53125-4.320312 8.324219-8.617187l19.226562-104.195313c.539063-2.921875-.15625-5.972656-1.910156-8.371094zm-341.382812 283.410157c-.082032.238281-.152344.480469-.207032.730469l-10.074218 42.972656h-6.25l2.269531-24.953125c.875-9.628907-3.976563-18.96875-12.363281-23.785157l-26.882813-15.449218c-14.539062-8.355469-22.292969-24.429688-20.003906-40.78125l5.722656.660156 30.453125 3.527344 36.871094 52.015625c.875 1.542969 1.046875 3.375.464844 5.0625zm-18.707032-124.773438-19.4375 52.492188-30.050781-3.472657-2.339843-.273437 5.246093-26.203125 15.761719-7.710938c3.71875-1.820312 5.261719-6.3125 3.441406-10.03125-1.820312-3.722656-6.3125-5.261718-10.035156-3.441406l-19.023438 9.304688c-.042968.019531-.082031.039062-.121093.058594l-47.15625 23.066406c-3.015625 1.476562-6.480469 1.484375-9.507813.023437-1.425781-.6875-2.65625-1.652343-3.636718-2.824219l105.882812-63.109374c2.179688-.214844 4.335938.664062 5.742188 2.429687l.3125.394531c.375.890625.800781 1.773438 1.296874 2.632813l3.632813 6.296875c.007813.007812.011719.015625.015625.023437 2.285156 6.484375 2.34375 13.621094-.023438 20.34375zm39.992188-34.074219-15.898438 9.179688c-1.878906 1.085938-4.066406 1.375-6.160156.808594-1.800781-.480469-3.34375-1.542969-4.429687-3.023438-1.296875-3.234375-2.960938-6.351562-5.011719-9.277344-.785156-3.386718.683594-7.039062 3.847656-8.863281l15.898438-9.179687c1.253906-.722656 2.640625-1.09375 4.046875-1.09375.707031 0 1.414062.09375 2.117187.28125 2.09375.5625 3.84375 1.90625 4.929688 3.78125l3.632812 6.292968c2.238282 3.878907.902344 8.855469-2.972656 11.09375zm140.074219 165.757813c-.957031 1.933594-3.105469 3.253906-6.773438 5.394531-.46875.273438-.945312.550782-1.425781.835938l-42.683594 24.453125-3.921875-3.234375 32.902344-28.171875c3.535156-3.007813 6.007813-7.183594 6.957031-11.761719l4.324219-20.972656c4.238281 6.871094 10.015625 12.863281 17.105469 17.460937zm70.078125-6.910156c-.082032.238281-.152344.480469-.210938.730469l-10.074218 42.972656h-6.25l2.269531-24.953125c.875-9.628907-3.976563-18.96875-12.359375-23.785157l-26.882813-15.449218c-14.539062-8.355469-22.296875-24.429688-20.007812-40.78125l7.210937.832031 28.964844 3.355469 36.871094 52.015625c.875 1.542969 1.046875 3.375.46875 5.0625zm13.574218-180.296875c.707032 0 1.417969.09375 2.117188.28125 2.09375.5625 3.84375 1.90625 4.929688 3.78125l3.632812 6.292968c2.238281 3.878907.90625 8.855469-2.972656 11.09375l-15.898438 9.179688c-1.875 1.085938-4.066406 1.375-6.160156.808594-1.800781-.480469-3.34375-1.542969-4.429688-3.023438-1.296874-3.234375-2.960937-6.351562-5.007812-9.273437-.570312-2.457031.050781-5.042969 1.632812-6.980469l20.539063-11.976562c.53125-.109376 1.074219-.183594 1.617187-.183594zm0 0" fill="#2f1442" data-original="#000000" style="" class=""/></g></svg>
